<svg width="164" height="130" viewBox="0 0 164 130" fill="none" xmlns="http://www.w3.org/2000/svg">
<path d="M5.05883 58.2167C9.43919 60.7457 14.7279 59.3293 17.1949 55.0563L40.8013 14.1688C43.2994 9.84207 41.9133 4.49878 37.533 1.96978C33.2063 -0.528218 27.8859 0.943067 25.3878 5.26982L1.78141 46.1573C-0.685593 50.4303 0.732167 55.7187 5.05883 58.2167ZM23.8476 85.0015C31.0408 89.1545 38.8497 87.2452 42.7842 80.4304L75.5395 23.6966C79.5051 16.8279 77.2543 9.11041 70.0611 4.95741C62.9225 0.835913 55.1135 2.74535 51.1479 9.61406L18.3926 66.3479C14.4581 73.1627 16.709 80.88 23.8476 85.0015ZM59.4247 66.0962L93.0109 85.4872L105.064 64.6113L71.4774 45.2203L59.4247 66.0962ZM94.4269 125.751C101.62 129.904 109.429 127.994 113.364 121.179L146.119 64.4456C150.084 57.5769 147.834 49.8594 140.64 45.7064C133.502 41.5849 125.693 43.4944 121.727 50.3631L88.9719 107.097C85.0374 113.912 87.2883 121.629 94.4269 125.751ZM126.476 128.317C130.804 130.816 136.146 129.43 138.613 125.157L162.22 84.2698C164.718 79.9431 163.278 74.5688 158.951 72.0703C154.625 69.5728 149.304 71.0441 146.806 75.3708L123.2 116.258C120.733 120.531 122.151 125.82 126.476 128.317Z" fill="#007AFF" fill-opacity="0.85"/>
</svg>
